<svg width="48" height="64" viewBox="0 0 48 64" fill="none" xmlns="http://www.w3.org/2000/svg">
<path d="M0.124053 63.8316C-0.93859 62.7707 5.05436 50.9657 9.36641 45.6244C11.1176 43.4569 14.0227 40.4499 15.8248 38.9412C17.6269 37.4341 19.1041 35.8762 19.1094 35.4792C19.1146 35.0823 18.3049 34.3006 17.3125 33.7421C13.8998 31.8241 8.88164 26.6162 6.21185 22.2199C4.42907 19.2831 3.45425 17.4599 2.56198 17.1332C1.78037 17.5513 1.14805 16.7819 1.15332 16.2901C0.334825 14.265 4.10062 12.1713 5.68668 12.6754C7.19897 12.9354 7.64159 15.7105 8.05787 16.8065C9.01688 19.3393 8.88866 19.0899 9.90739 21.1239C12.1433 25.594 15.7511 29.4283 19.4923 31.3182C22.3552 32.7637 23.3792 34.176 22.7645 35.8375C22.5572 36.3979 19.3078 39.923 15.5455 43.6712C8.56899 50.6214 5.34418 54.8228 3.18727 59.7725C2.70181 60.9038 2.19233 62.0246 1.65918 63.1343C1.25695 63.8948 0.521007 64.2285 0.124053 63.8316ZM46.6292 62.8656C46.2603 62.4985 46.6783 61.7783 47.258 61.7783C47.4968 61.7783 47.6918 62.091 47.6918 62.4704C47.6918 63.1835 47.1473 63.3854 46.6292 62.8673V62.8656ZM43.8048 56.6179C42.6561 54.2098 40.6257 50.9077 39.2908 49.2795C36.7791 46.2216 28.7733 39.2222 28.3043 38.7357C27.3207 37.7152 25.5502 37.248 25.8593 34.731C25.9998 34.19 27.8845 32.539 30.1415 30.9757C35.9729 26.943 38.7568 23.1578 40.5554 16.8241C41.4846 13.5501 42.5595 12.238 43.9506 12.6789C45.1836 13.0706 45.1731 13.587 43.854 17.2246C41.5829 23.4775 38.0121 27.7913 31.4466 32.2105C29.4811 33.5331 27.8353 34.5237 27.874 35.3387C27.939 36.721 29.1245 37.4148 32.7129 40.6045C35.8675 43.4095 39.7879 47.8919 42.1643 51.4153C44.9869 55.5957 46.9664 59.9235 46.3429 60.5488C46.0495 60.8404 45.1608 59.4598 43.8048 56.6179Z" fill="#FF0000"/>
<path d="M24.2278 25.3569C25.0863 25.3569 25.7822 24.6609 25.7822 23.8025C25.7822 22.944 25.0863 22.248 24.2278 22.248C23.3693 22.248 22.6733 22.944 22.6733 23.8025C22.6733 24.6609 23.3693 25.3569 24.2278 25.3569Z" fill="#007F00"/>
<path d="M27.1979 28.0038C27.8788 28.0038 28.4309 27.4518 28.4309 26.7708C28.4309 26.0898 27.8788 25.5378 27.1979 25.5378C26.5169 25.5378 25.9648 26.0898 25.9648 26.7708C25.9648 27.4518 26.5169 28.0038 27.1979 28.0038Z" fill="#007F00"/>
<path d="M24.4331 27.6736C24.9026 27.6736 25.2832 27.293 25.2832 26.8235C25.2832 26.354 24.9026 25.9734 24.4331 25.9734C23.9636 25.9734 23.583 26.354 23.583 26.8235C23.583 27.293 23.9636 27.6736 24.4331 27.6736Z" fill="#007F00"/>
<path d="M26.1019 30.8562C26.4278 30.8562 26.692 30.592 26.692 30.2661C26.692 29.9401 26.4278 29.6759 26.1019 29.6759C25.7759 29.6759 25.5117 29.9401 25.5117 30.2661C25.5117 30.592 25.7759 30.8562 26.1019 30.8562Z" fill="#007F00"/>
<path d="M24.5404 29.4828C24.7771 29.4828 24.969 29.2909 24.969 29.0542C24.969 28.8175 24.7771 28.6256 24.5404 28.6256C24.3037 28.6256 24.1118 28.8175 24.1118 29.0542C24.1118 29.2909 24.3037 29.4828 24.5404 29.4828Z" fill="#007F00"/>
<path d="M24.2313 34.4746C24.5572 34.4746 24.8214 34.2103 24.8214 33.8844C24.8214 33.5585 24.5572 33.2942 24.2313 33.2942C23.9053 33.2942 23.6411 33.5585 23.6411 33.8844C23.6411 34.2103 23.9053 34.4746 24.2313 34.4746Z" fill="#007F00"/>
<path d="M24.9304 37.7398C25.1389 37.7398 25.308 37.5707 25.308 37.3621C25.308 37.1536 25.1389 36.9845 24.9304 36.9845C24.7218 36.9845 24.5527 37.1536 24.5527 37.3621C24.5527 37.5707 24.7218 37.7398 24.9304 37.7398Z" fill="#007F00"/>
<path d="M22.2077 40.954C22.4163 40.954 22.5853 40.785 22.5853 40.5764C22.5853 40.3678 22.4163 40.1987 22.2077 40.1987C21.9992 40.1987 21.8301 40.3678 21.8301 40.5764C21.8301 40.785 21.9992 40.954 22.2077 40.954Z" fill="#007F00"/>
<path d="M20.0916 27.6402C20.95 27.6402 21.646 26.9443 21.646 26.0858C21.646 25.2273 20.95 24.5314 20.0916 24.5314C19.2331 24.5314 18.5371 25.2273 18.5371 26.0858C18.5371 26.9443 19.2331 27.6402 20.0916 27.6402Z" fill="#FF0000"/>
<path d="M16.4679 26.8973C17.1489 26.8973 17.7009 26.3452 17.7009 25.6643C17.7009 24.9833 17.1489 24.4312 16.4679 24.4312C15.7869 24.4312 15.2349 24.9833 15.2349 25.6643C15.2349 26.3452 15.7869 26.8973 16.4679 26.8973Z" fill="#FF0000"/>
<path d="M20.9782 30.9015C21.5832 30.9015 22.0736 30.4111 22.0736 29.8061C22.0736 29.2011 21.5832 28.7107 20.9782 28.7107C20.3732 28.7107 19.8828 29.2011 19.8828 29.8061C19.8828 30.4111 20.3732 30.9015 20.9782 30.9015Z" fill="#FF0000"/>
<path d="M17.3474 28.5803C17.6701 28.5803 17.9317 28.3187 17.9317 27.9961C17.9317 27.6734 17.6701 27.4118 17.3474 27.4118C17.0248 27.4118 16.7632 27.6734 16.7632 27.9961C16.7632 28.3187 17.0248 28.5803 17.3474 28.5803Z" fill="#FF0000"/>
<path d="M28.3334 30.368C28.6332 30.368 28.8762 30.1249 28.8762 29.8251C28.8762 29.5253 28.6332 29.2823 28.3334 29.2823C28.0336 29.2823 27.7905 29.5253 27.7905 29.8251C27.7905 30.1249 28.0336 30.368 28.3334 30.368Z" fill="#FF0000"/>
<path d="M18.9895 29.574C19.2253 29.574 19.4165 29.3828 19.4165 29.147C19.4165 28.9112 19.2253 28.72 18.9895 28.72C18.7537 28.72 18.5625 28.9112 18.5625 29.147C18.5625 29.3828 18.7537 29.574 18.9895 29.574Z" fill="#FF0000"/>
<path d="M25.8557 32.2614C26.0915 32.2614 26.2827 32.0702 26.2827 31.8344C26.2827 31.5985 26.0915 31.4074 25.8557 31.4074C25.6199 31.4074 25.4287 31.5985 25.4287 31.8344C25.4287 32.0702 25.6199 32.2614 25.8557 32.2614Z" fill="#FF0000"/>
<path d="M24.491 35.985C24.7268 35.985 24.918 35.7938 24.918 35.558C24.918 35.3222 24.7268 35.131 24.491 35.131C24.2551 35.131 24.064 35.3222 24.064 35.558C24.064 35.7938 24.2551 35.985 24.491 35.985Z" fill="#FF0000"/>
<path d="M22.657 39.1641C22.8928 39.1641 23.084 38.973 23.084 38.7371C23.084 38.5013 22.8928 38.3102 22.657 38.3102C22.4212 38.3102 22.23 38.5013 22.23 38.7371C22.23 38.973 22.4212 39.1641 22.657 39.1641Z" fill="#FF0000"/>
<path d="M24.9319 39.2344C25.1677 39.2344 25.3589 39.0432 25.3589 38.8074C25.3589 38.5715 25.1677 38.3804 24.9319 38.3804C24.6961 38.3804 24.5049 38.5715 24.5049 38.8074C24.5049 39.0432 24.6961 39.2344 24.9319 39.2344Z" fill="#FF0000"/>
<path d="M26.781 41.4475C27.0168 41.4475 27.208 41.2563 27.208 41.0205C27.208 40.7847 27.0168 40.5935 26.781 40.5935C26.5452 40.5935 26.354 40.7847 26.354 41.0205C26.354 41.2563 26.5452 41.4475 26.781 41.4475Z" fill="#FF0000"/>
<path d="M30.4233 26.385C31.1964 26.385 31.8231 25.7582 31.8231 24.9851C31.8231 24.212 31.1964 23.5853 30.4233 23.5853C29.6502 23.5853 29.0234 24.212 29.0234 24.9851C29.0234 25.7582 29.6502 26.385 30.4233 26.385Z" fill="#0000FF"/>
<path d="M30.8902 28.9872C31.3511 28.9872 31.7247 28.6136 31.7247 28.1527C31.7247 27.6918 31.3511 27.3181 30.8902 27.3181C30.4293 27.3181 30.0557 27.6918 30.0557 28.1527C30.0557 28.6136 30.4293 28.9872 30.8902 28.9872Z" fill="#0000FF"/>
<path d="M32.9647 25.8104C33.2925 25.8104 33.5582 25.5446 33.5582 25.2168C33.5582 24.889 33.2925 24.6233 32.9647 24.6233C32.6368 24.6233 32.3711 24.889 32.3711 25.2168C32.3711 25.5446 32.6368 25.8104 32.9647 25.8104Z" fill="#0000FF"/>
<path d="M32.7159 27.1916C32.9157 27.1916 33.0778 27.0296 33.0778 26.8298C33.0778 26.6299 32.9157 26.4679 32.7159 26.4679C32.516 26.4679 32.354 26.6299 32.354 26.8298C32.354 27.0296 32.516 27.1916 32.7159 27.1916Z" fill="#0000FF"/>
<path d="M22.6543 27.2573C22.8747 27.2573 23.0533 27.0787 23.0533 26.8584C23.0533 26.6381 22.8747 26.4594 22.6543 26.4594C22.434 26.4594 22.2554 26.6381 22.2554 26.8584C22.2554 27.0787 22.434 27.2573 22.6543 27.2573Z" fill="#0000FF"/>
<path d="M23.7771 32.0527C24.2988 32.0527 24.7217 31.6298 24.7217 31.1081C24.7217 30.5864 24.2988 30.1635 23.7771 30.1635C23.2554 30.1635 22.8325 30.5864 22.8325 31.1081C22.8325 31.6298 23.2554 32.0527 23.7771 32.0527Z" fill="#0000FF"/>
<path d="M23.5461 37.7047C23.7547 37.7047 23.9237 37.5356 23.9237 37.327C23.9237 37.1185 23.7547 36.9494 23.5461 36.9494C23.3375 36.9494 23.1685 37.1185 23.1685 37.327C23.1685 37.5356 23.3375 37.7047 23.5461 37.7047Z" fill="#0000FF"/>
<path d="M24.0031 40.4974C24.2117 40.4974 24.3808 40.3283 24.3808 40.1198C24.3808 39.9112 24.2117 39.7421 24.0031 39.7421C23.7946 39.7421 23.6255 39.9112 23.6255 40.1198C23.6255 40.3283 23.7946 40.4974 24.0031 40.4974Z" fill="#0000FF"/>
<path d="M26.3054 40.0583C26.5139 40.0583 26.683 39.8892 26.683 39.6807C26.683 39.4721 26.5139 39.303 26.3054 39.303C26.0968 39.303 25.9277 39.4721 25.9277 39.6807C25.9277 39.8892 26.0968 40.0583 26.3054 40.0583Z" fill="#0000FF"/>
<path d="M20.8288 41.3932C21.0374 41.3932 21.2064 41.2241 21.2064 41.0156C21.2064 40.807 21.0374 40.6379 20.8288 40.6379C20.6202 40.6379 20.4512 40.807 20.4512 41.0156C20.4512 41.2241 20.6202 41.3932 20.8288 41.3932Z" fill="#C0AF83"/>
<path d="M19.947 43.2901C20.1555 43.2901 20.3246 43.121 20.3246 42.9125C20.3246 42.7039 20.1555 42.5349 19.947 42.5349C19.7384 42.5349 19.5693 42.7039 19.5693 42.9125C19.5693 43.121 19.7384 43.2901 19.947 43.2901Z" fill="#C0AF83"/>
<path d="M21.7932 42.8159C22.0017 42.8159 22.1708 42.6468 22.1708 42.4382C22.1708 42.2297 22.0017 42.0606 21.7932 42.0606C21.5846 42.0606 21.4155 42.2297 21.4155 42.4382C21.4155 42.6468 21.5846 42.8159 21.7932 42.8159Z" fill="#C0AF83"/>
<path d="M23.1105 43.255C23.3191 43.255 23.4882 43.0859 23.4882 42.8774C23.4882 42.6688 23.3191 42.4997 23.1105 42.4997C22.902 42.4997 22.7329 42.6688 22.7329 42.8774C22.7329 43.0859 22.902 43.255 23.1105 43.255Z" fill="#C0AF83"/>
<path d="M23.6389 41.885C23.8474 41.885 24.0165 41.7159 24.0165 41.5074C24.0165 41.2988 23.8474 41.1297 23.6389 41.1297C23.4303 41.1297 23.2612 41.2988 23.2612 41.5074C23.2612 41.7159 23.4303 41.885 23.6389 41.885Z" fill="#C0AF83"/>
<path d="M25.3815 41.8674C25.5901 41.8674 25.7592 41.6983 25.7592 41.4897C25.7592 41.2812 25.5901 41.1121 25.3815 41.1121C25.173 41.1121 25.0039 41.2812 25.0039 41.4897C25.0039 41.6983 25.173 41.8674 25.3815 41.8674Z" fill="#C0AF83"/>
<path d="M25.8488 43.2901C26.0574 43.2901 26.2265 43.121 26.2265 42.9125C26.2265 42.7039 26.0574 42.5349 25.8488 42.5349C25.6403 42.5349 25.4712 42.7039 25.4712 42.9125C25.4712 43.121 25.6403 43.2901 25.8488 43.2901Z" fill="#C0AF83"/>
<path d="M27.259 43.2725C27.4675 43.2725 27.6366 43.1035 27.6366 42.8949C27.6366 42.6863 27.4675 42.5173 27.259 42.5173C27.0504 42.5173 26.8813 42.6863 26.8813 42.8949C26.8813 43.1035 27.0504 43.2725 27.259 43.2725Z" fill="#C0AF83"/>
<path d="M28.5656 42.7983C28.7742 42.7983 28.9433 42.6293 28.9433 42.4207C28.9433 42.2121 28.7742 42.0431 28.5656 42.0431C28.3571 42.0431 28.188 42.2121 28.188 42.4207C28.188 42.6293 28.3571 42.7983 28.5656 42.7983Z" fill="#C0AF83"/>
<path d="M24.5019 58.9267C31.3002 58.9267 36.8113 57.324 36.8113 55.3471C36.8113 53.3701 31.3002 51.7674 24.5019 51.7674C17.7035 51.7674 12.1924 53.3701 12.1924 55.3471C12.1924 57.324 17.7035 58.9267 24.5019 58.9267Z" fill="black"/>
<path d="M24.5019 59.3708C31.3002 59.3708 36.8113 57.7681 36.8113 55.7911C36.8113 53.8142 31.3002 52.2115 24.5019 52.2115C17.7035 52.2115 12.1924 53.8142 12.1924 55.7911C12.1924 57.7681 17.7035 59.3708 24.5019 59.3708Z" fill="black"/>
<path d="M24.5019 58.7214C31.193 58.7214 36.6172 57.1859 36.6172 55.2917C36.6172 53.3974 31.193 51.8618 24.5019 51.8618C17.8109 51.8618 12.3867 53.3974 12.3867 55.2917C12.3867 57.1859 17.8109 58.7214 24.5019 58.7214Z" fill="#CCAF5F"/>
<path d="M24.6794 43.676C21.0054 43.6038 17.1483 44.6638 17.1538 45.8626L17.1594 47.9826C17.7143 53.3548 20.5059 56.8734 24.3186 56.8512C28.1202 56.829 29.6131 54.9643 31.0172 52.1561C37.0776 49.1425 35.1074 47.139 31.6499 47.6052L31.6999 45.7183C31.7332 44.5528 28.3533 43.7481 24.6794 43.676ZM33.0096 48.2878C34.0363 48.3766 33.9919 49.2813 33.3149 49.9528L31.1948 51.5456C31.3447 50.5744 31.5777 50.5189 31.7276 48.3489L33.0096 48.2878Z" fill="black"/>
<path d="M17.4424 48.3987C17.5922 50.0026 19.0962 56.4848 24.4351 56.6235C29.7741 56.7678 31.5389 51.1847 31.4667 48.4098C26.8604 50.9405 20.9943 50.0359 17.4424 48.3987Z" fill="#CCAF5F"/>
<path d="M17.3871 48.0658C18.3971 48.643 22.171 49.753 24.3632 49.7252C26.5553 49.6919 27.915 49.7252 31.4225 48.1102L31.4558 46.6895C31.2338 47.2611 27.7153 48.4987 24.3687 48.5098C21.0222 48.5209 18.5636 47.8105 17.376 46.6561L17.3871 48.0658Z" fill="white"/>
<path d="M28.5975 48.0103C32.5054 48.0103 35.6734 47.091 35.6734 45.9569C35.6734 44.8228 32.5054 43.9035 28.5975 43.9035C24.6895 43.9035 21.5215 44.8228 21.5215 45.9569C21.5215 47.091 24.6895 48.0103 28.5975 48.0103Z" fill="white"/>
<path d="M18.4971 47.0667C19.6958 47.5551 21.1499 48.2544 24.3243 48.1711C27.5099 48.0823 29.5412 47.5495 30.4957 47.0056C29.1915 46.1621 27.9539 45.6681 24.6629 45.6293C21.3719 45.5904 19.4738 46.2398 18.4971 47.0667Z" fill="#C0AF83"/>
<path d="M17.2124 1.53088L17.2212 1.55195V1.53791C17.2212 1.53439 17.2142 1.53441 17.2124 1.53265V1.53088ZM24.9759 1.54847L24.9688 1.55195C24.6913 1.57303 24.3804 1.68721 23.8675 1.78909C23.713 1.8207 23.5549 1.84175 23.3564 1.86809C23.2598 1.87863 23.1755 1.89271 23.0684 1.90149C22.6864 1.93357 22.3029 1.94527 21.9197 1.9366C20.9217 1.92201 19.924 1.89449 18.9267 1.85405C18.5555 1.84165 18.1851 1.81236 17.8166 1.76625L17.7358 1.75923C17.7762 2.02269 17.85 2.44421 17.8201 3.10287L17.8641 3.10641C18.4472 3.10641 18.8529 3.12221 19.1726 3.15031H19.1831C20.3687 3.14153 21.045 3.59646 24.2469 2.99401C25.3711 2.80256 25.8453 3.49633 26.2616 3.86167C27.8037 5.21763 29.2563 6.073 30.5438 5.45649C31.8119 5.1456 32.4811 4.07772 33.816 3.49985C33.823 2.98346 33.7984 2.51974 33.7176 2.21061C33.6368 2.27384 33.6017 2.30545 33.5033 2.37571C33.0311 2.71903 32.5416 3.03795 32.0367 3.33122C30.9003 3.87571 30.1749 4.40793 29.3617 4.37807C29.1438 4.36817 28.9293 4.3206 28.7276 4.23752C28.285 4.06188 27.7862 3.71059 27.1767 3.11692C26.8242 2.76901 26.4866 2.40629 26.165 2.02971H26.1615C25.9661 1.88927 25.7572 1.76867 25.5379 1.66966C25.497 1.65209 25.4554 1.63625 25.4132 1.62222C25.2751 1.56846 25.1275 1.54337 24.9794 1.54847H24.9759ZM19.8172 3.29611C19.84 3.30665 19.8699 3.31892 19.8875 3.33122C19.8699 3.31892 19.84 3.30665 19.8172 3.29611ZM19.4009 4.76625C18.8951 4.87515 18.1925 4.72584 17.5286 4.85405C15.7423 4.85405 14.1773 5.44771 12.5912 6.7141C11.7482 7.38506 11.151 7.56073 9.83891 8.00511C9.16092 8.23345 8.63399 8.42841 8.18786 8.58825C7.93258 8.68192 7.67358 8.76513 7.41151 8.83766C7.40976 8.83766 7.40449 8.83763 7.40098 8.84114C7.26046 8.87627 7.12697 8.90442 7.02686 8.90793L7.51339 10.5625C7.545 10.5625 7.58013 10.573 7.61877 10.6257C9.35237 9.72994 9.50518 9.59643 10.7347 9.29783C10.7347 9.29783 11.6919 12.4945 11.7569 12.9986C11.8237 13.501 13.0743 16.5062 13.552 17.7972C14.0298 19.0882 15.2733 21.4875 15.4472 22.176C15.7282 22.457 15.7159 22.1848 18.5456 21.159C19.7803 20.5337 21.0397 20.0033 21.34 19.803C21.2873 19.6133 21.2382 19.3341 21.1837 19.111C21.1433 19.4272 20.9694 19.4869 20.6164 19.6221L15.7317 21.9196L15.3278 20.8657C14.875 19.7681 14.3852 18.6861 13.8594 17.6216C13.0953 16.0443 12.398 14.1333 12.1556 12.7896L11.2458 9.09232C12.9566 7.73987 15.8038 6.45768 17.6849 6.11869L19.4009 5.8078V4.76625ZM17.7675 6.91436C16.8014 7.02853 15.0608 7.82242 13.61 8.88858C12.3102 9.84232 12.2048 10.097 12.5403 11.4477C13.1394 13.8688 13.9294 16.2386 14.9027 18.5349H14.9045C15.4577 19.8698 15.9689 20.9606 16.0426 20.9606C16.1146 20.9606 19.0198 19.6959 20.179 19.1339C20.3652 18.8915 20.3547 18.765 20.1474 17.7603C20.0174 17.128 19.6591 14.5496 19.3518 12.0326C19.0426 9.51389 18.6299 7.26917 18.4349 7.04434C18.3242 6.91613 18.0889 6.87747 17.7675 6.91436ZM17.7991 7.47466C18.5192 7.24457 19.0953 13.2358 19.617 16.847C19.6258 17.1895 20.0561 18.5332 19.5116 18.7316L16.3377 20.0911L15.3734 17.5566C14.6954 15.9415 14.1422 14.2768 13.7189 12.5771C13.134 10.0584 13.148 9.97759 14.2054 9.28556C14.8026 8.89387 17.1299 7.72935 17.7991 7.47466ZM30.9372 8.21764C30.7844 8.40382 30.6544 8.83768 30.5332 9.41554L32.172 9.68779C33.0818 9.83708 34.775 9.96354 35.9378 9.96705C37.378 9.96881 38.4372 10.2726 39.2627 10.9225L40.8119 11.9448C41.0929 11.467 41.2808 11.0543 41.2966 10.4272L41.2633 10.4096C40.8997 10.2656 40.4255 10.0039 39.6632 9.58943C39.3665 9.44817 39.0601 9.3284 38.7463 9.2311C37.896 8.96468 37.0287 8.75574 36.1503 8.60577C35.699 8.52596 35.245 8.46273 34.7891 8.41613C33.124 8.25103 31.4079 8.28966 30.9372 8.21764ZM31.0426 10.3429L30.1644 15.7685C29.5549 21.0326 28.9032 21.5419 29.9114 21.0923C29.9114 19.5255 30.4665 15.5595 30.6808 15.0467L31.4009 10.9787L32.8429 11.4354C33.6351 11.6848 34.898 11.8728 35.655 11.8499C38.8851 12.2135 38.3862 12.2732 37.2059 15.491H37.2094C36.6105 17.2914 36.3013 19.6344 35.5584 21.4787C35.1649 22.7574 35.2124 22.6344 35.4407 22.6344C36.0906 22.6344 36.7721 19.6977 37.2428 17.5988C37.4782 16.5467 38.0051 14.8868 38.4126 13.9067C39.1608 12.1187 38.9255 11.453 37.4887 11.3142C35.9471 11.1723 34.4128 10.9607 32.8904 10.6801L31.0426 10.3429Z" fill="#CDCDCD"/>
<path d="M33.7825 0.55952C33.5717 0.570058 33.3012 0.664917 32.957 0.856368C32.9096 0.891497 32.9096 0.898534 32.8639 0.933663C33.4189 0.675467 33.8422 0.548999 34.0179 0.599936C33.9431 0.570279 33.8629 0.556503 33.7825 0.55952ZM34.1004 0.643836C34.2726 1.03025 34.3815 1.23579 34.4254 1.36752C34.3973 1.01096 34.2954 0.763273 34.1004 0.643836ZM17.2176 1.53433L17.2106 1.7504C17.2931 2.32124 17.3686 2.78317 17.2246 3.14148C17.4073 3.12392 17.5952 3.10111 17.7691 3.09935H17.8165C17.8481 2.44069 17.7726 2.01912 17.7322 1.75565C17.4512 1.70471 17.3019 1.63269 17.2176 1.53433ZM34.4166 1.62218C34.3802 1.67018 34.3383 1.7138 34.2919 1.75217C34.1036 1.90909 33.9115 2.06133 33.7158 2.2088C33.9441 3.08702 33.8879 4.984 33.1361 6.89149C33.3733 6.89324 33.5155 6.8792 33.7404 6.87744C33.8387 5.09817 34.4254 2.90261 34.4166 1.62041V1.62218ZM19.9664 4.22875C19.9313 4.36926 19.8961 4.48341 19.8961 4.48341L20.8762 4.62921C20.8587 4.90497 20.8516 5.18601 20.8341 5.46352C20.553 5.42313 20.2703 5.36866 19.9875 5.33177L19.9822 5.34405C19.9506 4.91899 19.926 4.75741 19.8944 4.48341C19.789 4.62392 19.6098 4.6977 19.3973 4.73459V7.02319C19.7293 11.7533 19.9488 12.6508 20.539 15.5753C20.9728 18.9617 21.7632 21.7825 22.0478 20.9552C22.0039 20.6215 21.8019 19.6274 21.6754 18.9459C22.0899 19.0056 22.5027 19.0671 22.919 19.1531C22.9014 19.3288 22.8891 19.5044 22.8698 19.6783V19.6836L23.1508 19.6081L23.2018 19.2199C23.6496 19.3182 24.0975 19.4148 24.5489 19.5466C24.7351 19.6221 24.8914 19.6696 25.0653 19.7346C25.032 19.9506 25.0056 20.1684 24.9687 20.3844L24.9705 20.3932L25.255 20.3317C25.2866 20.1701 25.3147 20.0015 25.3446 19.8382C25.9769 20.0577 26.5249 20.207 27.0325 20.3176C26.9798 20.56 26.9359 20.8007 26.8797 21.0413V21.0501L27.1678 21.0062C27.2205 20.799 27.2697 20.5811 27.3206 20.3721C27.6262 20.4318 27.9266 20.4898 28.2216 20.5425C28.1479 20.7814 28.0846 21.0378 28.0038 21.2661C28.4447 21.6244 28.2673 21.4242 28.5343 20.9921C28.9066 20.3879 29.6233 16.2586 30.2854 10.8839C30.4751 9.347 30.6736 8.53198 30.9353 8.21406C30.9143 8.21231 30.8264 8.21408 30.8124 8.20881C30.5963 8.15787 30.4049 8.13153 30.3592 7.86806C30.354 7.87333 30.3575 7.87158 30.354 7.87685C30.0885 7.82378 29.8239 7.76696 29.56 7.70645C29.6285 7.44299 29.6883 7.17604 29.7603 6.91609C29.9201 6.94244 30.224 7.02148 30.4804 7.08295C30.5103 6.98284 30.5138 6.93013 30.5542 6.80894V6.80717C30.577 6.80893 30.6929 6.80891 30.7228 6.81242C30.2942 6.73338 29.7831 6.64209 29.5425 6.59115C28.6976 6.39794 27.8686 6.15903 27.0448 5.90435L26.7638 5.81478C26.2316 5.64616 25.6976 5.48106 25.169 5.30015C24.844 5.19125 24.5191 5.10167 24.1941 5.01209L23.9131 4.93131C23.0114 4.70978 22.0985 4.53619 21.1783 4.41137L20.8885 4.36398L19.9646 4.23046L19.9664 4.22875ZM12.9126 4.46411C12.575 4.57237 12.2527 4.72345 11.9535 4.91373C12.2697 4.74687 12.5911 4.61165 12.9126 4.46411ZM21.1643 4.67311C22.0601 4.81362 22.9646 5.00157 23.8692 5.23518C23.8288 5.48986 23.7989 5.74981 23.7603 6.00625C22.8821 5.78142 22.0039 5.64087 21.1221 5.50914C21.1397 5.23162 21.145 4.94887 21.1643 4.67311ZM24.152 5.30717C24.4506 5.38796 24.7492 5.44242 25.0478 5.53551C25.645 5.78668 26.1894 5.99045 26.6988 6.15907C26.6479 6.39443 26.6075 6.63328 26.5601 6.86688C26.0683 6.7088 25.5712 6.56305 25.0829 6.39443C24.7406 6.28182 24.395 6.17929 24.0466 6.08702C24.0817 5.82883 24.1116 5.56536 24.152 5.30717ZM19.9998 5.59876C20.272 5.63565 20.5478 5.6883 20.82 5.72869C20.8025 6.0431 20.7849 6.35577 20.7726 6.67193C20.5355 6.6368 20.2984 6.59466 20.0612 6.55953L19.9998 5.59876ZM21.1116 5.77436C21.9758 5.90961 22.8434 6.09053 23.7164 6.3136C23.6742 6.60693 23.6303 6.89851 23.5934 7.19359C22.7592 6.99427 21.9157 6.83602 21.0659 6.71937C21.0782 6.40321 21.0958 6.08701 21.1116 5.77436ZM26.9781 6.24338C27.902 6.53671 28.7152 6.72812 29.4722 6.86688C29.402 7.12332 29.3405 7.38506 29.272 7.64326C28.4536 7.44383 27.6428 7.21472 26.8411 6.95645C26.8868 6.71933 26.9289 6.47874 26.9781 6.24338ZM24.0044 6.38564C24.3241 6.47171 24.642 6.53139 24.9617 6.62975C25.5132 6.86335 26.0156 7.05129 26.4898 7.21288C26.4371 7.48689 26.3827 7.75917 26.3317 8.03493C25.8715 7.88739 25.4061 7.74864 24.9494 7.59056C24.5967 7.47442 24.2406 7.36894 23.8815 7.27437C23.9166 6.97577 23.9623 6.68248 24.0044 6.38564ZM20.0771 6.82824L20.7585 6.93715C20.748 7.24804 20.7199 7.55188 20.7146 7.86452L20.135 7.77672C20.1175 7.42895 20.0981 7.16196 20.0771 6.82824ZM21.0536 6.98459C21.8827 7.11632 22.7152 7.29017 23.5513 7.50094C23.5162 7.79075 23.4705 8.07532 23.4389 8.36688C22.6407 8.17916 21.8342 8.02855 21.022 7.9155C21.0255 7.6011 21.0431 7.29548 21.0536 6.98459ZM26.7726 7.30251C27.6719 7.59583 28.464 7.78903 29.2 7.92954C29.1227 8.22111 29.0437 8.51268 28.9716 8.80776C28.176 8.61455 27.3944 8.3704 26.6145 8.1245C26.6619 7.84698 26.7199 7.57651 26.7726 7.30251ZM23.8393 7.57475C24.1695 7.66257 24.4962 7.724 24.8282 7.82588C25.3481 8.04543 25.8171 8.21935 26.2685 8.37567C26.2211 8.64441 26.1666 8.90788 26.1245 9.17837C25.7187 9.04488 25.3077 8.92721 24.9037 8.7867C24.52 8.65929 24.1322 8.54445 23.741 8.44241C23.7691 8.15084 23.806 7.86281 23.8393 7.57475ZM29.4898 7.9787C29.7638 8.02788 30.0396 8.07705 30.3083 8.12096C30.2521 8.41253 30.1941 8.70763 30.1414 9.0554C29.8477 8.99729 29.555 8.93464 29.2632 8.86747C29.3335 8.56888 29.4143 8.27554 29.4898 7.9787ZM20.1526 8.04372C20.3405 8.07533 20.5267 8.10517 20.7146 8.13152C20.7111 8.48807 20.7111 8.84466 20.7182 9.20297C20.4898 9.16784 20.3598 9.13092 20.2176 9.09228C20.193 8.64615 20.1789 8.51444 20.1526 8.04372ZM21.0273 8.18421C21.8177 8.31067 22.6133 8.47405 23.4108 8.67252C23.3792 9.00976 23.3493 9.35048 23.3247 9.69123C22.5659 9.50154 21.8107 9.3751 21.0519 9.25566C21.0466 8.89911 21.0255 8.53549 21.0273 8.18421ZM26.5495 8.47403C27.4225 8.76209 28.1865 8.94828 28.8996 9.0888C28.8329 9.37334 28.7591 9.65434 28.6959 9.94064C27.9291 9.74101 27.1687 9.51727 26.416 9.2697C26.4564 9.00273 26.5056 8.73926 26.5495 8.47403ZM17.669 8.57942C17.4828 8.54253 16.8716 8.77964 16.4219 9.00973C15.9178 9.26793 15.1994 9.68946 14.82 9.9459C14.4407 10.2023 13.587 10.7714 13.8733 10.7732C14.1614 10.7785 15.6227 10.1198 17.4213 8.99918C17.7375 8.7199 17.7796 8.60225 17.6672 8.57942H17.669ZM41.3563 8.57942C41.6109 8.70939 41.9183 8.84641 42.094 8.96058C42.3082 9.1011 42.2116 9.7966 42.2081 9.93887C42.0483 10.5273 41.8077 10.6187 41.2948 10.4219C41.2684 11.4986 40.8732 11.7498 40.0231 13.255C39.2204 15.1274 39.1432 15.4401 38.1701 18.2099C38.1595 19.1918 35.5003 23.7041 34.9312 23.7041C34.6695 23.7041 34.5887 23.9184 34.7521 24.1818C35.2579 24.9986 36.4101 23.6637 37.738 20.7252C38.4195 19.2146 39.1273 17.258 39.31 16.378C39.4944 15.4963 40.2409 13.8628 40.9716 12.7492C42.4892 10.4307 42.7193 8.59348 41.4933 8.58821C41.4616 8.58821 41.3931 8.57942 41.3563 8.57942ZM23.7217 8.7533C24.0765 8.84639 24.4277 8.91135 24.7843 9.02201C25.2515 9.21873 25.6678 9.37155 26.0788 9.51558C26.0286 9.83928 25.9829 10.1637 25.9418 10.4887C25.5325 10.3552 25.1198 10.2357 24.714 10.0952C24.3642 9.98045 24.011 9.87617 23.6549 9.78257C23.6795 9.44007 23.6918 9.09229 23.7217 8.7533ZM6.75977 8.85691C6.94946 9.69649 7.31656 11.0999 8.13154 13.6783C10.1075 19.5167 12.2486 23.6953 13.4658 24.0764C13.912 24.2169 13.8206 23.9219 13.1901 23.193C11.4424 21.1731 10.3921 19.4342 8.61456 14.3229L7.02499 8.90435C6.93389 8.91354 6.84203 8.8971 6.75977 8.85691ZM29.1929 9.14674C29.5021 9.2047 29.8077 9.2574 30.1098 9.30658C30.0659 9.60166 30.022 9.90024 29.9816 10.2269C29.653 10.1628 29.3257 10.0925 28.9997 10.0162C29.0612 9.7246 29.1262 9.43655 29.1929 9.14674ZM20.2334 9.36453C20.3931 9.41008 20.5556 9.44527 20.7199 9.46991C20.7269 9.80363 20.748 10.1409 20.7638 10.4781C20.5495 10.4465 20.4301 10.443 20.2966 10.436L20.2334 9.36453ZM21.0589 9.52437C21.8036 9.64908 22.5501 9.81065 23.2984 9.99859C23.2808 10.306 23.2773 10.6186 23.265 10.9278C22.5378 10.7521 21.8107 10.6344 21.0835 10.5238C21.0677 10.1901 21.0677 9.85633 21.0607 9.52437H21.0589ZM26.3668 9.6245C27.2152 9.91255 27.9476 10.0935 28.6397 10.2375C28.5694 10.5659 28.4992 10.8962 28.4377 11.2299C27.6971 11.0357 26.9625 10.8189 26.2351 10.58C26.2755 10.2603 26.3229 9.94241 26.3668 9.6245ZM18.0396 10.0074C17.9423 10.0039 17.8451 10.0158 17.7515 10.0425L14.7445 11.5004C14.4108 11.6901 14.3581 11.6567 14.1385 11.8499C13.9172 12.0449 14.121 12.0817 14.3195 12.0817C14.6971 12.0817 17.604 10.6239 18.0923 10.2551C18.2346 10.0742 18.1573 10.0197 18.0396 10.0091V10.0074ZM23.6338 10.0864C23.9553 10.1725 24.2732 10.2305 24.5964 10.3288C25.0653 10.5291 25.4851 10.6801 25.8979 10.8277C25.8663 11.1069 25.8505 11.3932 25.8259 11.676C25.4359 11.5531 25.0425 11.4424 24.6543 11.3124C24.2943 11.1965 23.9342 11.0982 23.5759 11.0051C23.5899 10.6959 23.6145 10.3938 23.6338 10.0864ZM28.947 10.3042C29.2878 10.371 29.618 10.4272 29.9482 10.4799C29.9061 10.8048 29.8586 11.1965 29.8165 11.5425C29.4652 11.4723 29.1139 11.4002 28.7644 11.3159C28.8276 10.9804 28.8785 10.6362 28.947 10.3042ZM20.3142 10.6819C20.4441 10.6924 20.5741 10.6994 20.7779 10.7293C20.7937 10.9875 20.799 11.2422 20.82 11.5021C20.8306 11.6181 20.8358 11.7322 20.8446 11.8464C20.6356 11.8165 20.5162 11.7937 20.3792 11.7691C20.3634 11.5917 20.3335 11.012 20.3142 10.6801V10.6819ZM21.0905 10.7767C21.8107 10.8927 22.5308 11.0419 23.2544 11.2176C23.2492 11.4318 23.2334 11.6391 23.2316 11.8552C23.2316 11.9957 23.2263 12.1362 23.2263 12.275C22.5435 12.1188 21.8544 11.9916 21.1608 11.8938C21.1379 11.7287 21.1292 11.5952 21.1046 11.4231C21.0923 11.2035 21.1028 10.9945 21.0905 10.7767ZM26.1947 10.9418H26.1965C27.0097 11.2158 27.714 11.3879 28.3815 11.5284C28.3341 11.7989 28.3007 12.0782 28.2585 12.354C27.5384 12.1766 26.82 11.9851 26.1139 11.7656C26.1403 11.4916 26.1631 11.2141 26.1947 10.9401V10.9418ZM10.2551 10.9945L8.21234 11.8025L8.38622 11.9974L10.4202 11.2123L10.2551 10.9945ZM18.0659 11.135L16.1971 12.0659C15.3154 12.4875 14.5074 12.9073 14.4038 13.0021V13.0039C14.3072 13.2463 14.3809 13.3025 14.4916 13.32C14.8956 12.9969 17.5935 11.8938 18.1871 11.3967L18.0659 11.135ZM23.5548 11.2931C23.8832 11.3774 24.2082 11.4371 24.5366 11.5338C24.9898 11.7199 25.3973 11.8622 25.796 11.9974C25.782 12.1976 25.7556 12.3927 25.7433 12.5946C25.7363 12.7281 25.7222 12.8633 25.7152 12.9986C25.3376 12.8792 24.9547 12.7703 24.5788 12.6473C24.2342 12.537 23.8863 12.4374 23.5355 12.3487C23.5267 12.1573 23.5337 12.001 23.5214 11.799C23.5267 11.6268 23.5478 11.4653 23.5565 11.2931H23.5548ZM10.5431 11.5741L8.50039 12.3821L8.67428 12.5753L10.7047 11.7884L10.5431 11.5741ZM28.7134 11.604C29.0788 11.6742 29.4336 11.7357 29.7849 11.7937L29.676 12.6807C29.3018 12.6051 28.9348 12.5085 28.5659 12.4225C28.6098 12.1467 28.666 11.878 28.7134 11.604ZM31.796 12.008L31.6818 12.2539L37.4025 13.0935L37.529 12.8669L31.796 12.008ZM20.3915 12.008C20.5267 12.0361 20.6584 12.0572 20.8604 12.087C20.8903 12.4243 20.9078 12.7597 20.9342 13.097C20.8097 13.0776 20.685 13.06 20.5601 13.0443C20.5285 12.8686 20.4143 12.3171 20.4055 12.2416C20.402 12.2205 20.3932 12.0378 20.3915 12.0097V12.008ZM26.0788 12.1011C26.8868 12.3645 27.5542 12.5086 28.2164 12.6403C28.1848 12.8651 28.1426 13.0847 28.1163 13.3113C28.104 13.4237 28.0846 13.5343 28.0706 13.6467C27.3819 13.483 26.6984 13.2984 26.0208 13.0935C26.0208 12.9055 26.0349 12.7509 26.0349 12.5542C26.0454 12.4014 26.0647 12.2539 26.0788 12.1011ZM21.1871 12.138C21.8633 12.2469 22.5396 12.3873 23.2193 12.5507C23.2193 12.8827 23.207 13.2129 23.2018 13.5431C22.5752 13.3874 21.9423 13.2584 21.3048 13.1567C21.2714 12.8317 21.2328 12.4892 21.1871 12.138ZM10.7785 12.1819L8.73575 12.9898L8.90789 13.183L10.9401 12.3979L10.7785 12.1819ZM23.5443 12.6298C23.8516 12.7088 24.1572 12.765 24.4664 12.8563C24.9072 13.0372 25.306 13.1778 25.6924 13.3095C25.6748 13.6485 25.645 13.9875 25.6221 14.3265C25.2656 14.2 24.902 14.0858 24.5472 13.9541C24.2257 13.8404 23.9006 13.7373 23.5724 13.645C23.5688 13.3218 23.5548 12.9775 23.5443 12.6298ZM28.5185 12.7C28.8908 12.7703 29.2825 12.8546 29.6444 12.9143C29.5987 13.2831 29.5636 13.6046 29.5126 13.9822C29.1262 13.9119 28.7556 13.8048 28.3762 13.717C28.3867 13.5642 28.4026 13.4447 28.4113 13.2866C28.4412 13.0864 28.4886 12.8985 28.5167 12.7H28.5185ZM31.6309 12.7387L31.5167 12.9845L37.2374 13.8223L37.3639 13.5993L31.6309 12.7387ZM20.6093 13.3025C20.7146 13.32 20.8148 13.3305 20.9535 13.3534C20.9851 13.7732 21.0203 14.1912 21.0448 14.611C20.8692 14.5846 20.8639 14.5794 20.8516 14.5723L20.6093 13.3025ZM21.3364 13.4202C21.9547 13.5326 22.5747 13.6766 23.1982 13.8417C23.1912 14.2316 23.1895 14.6215 23.1772 15.0115C22.5989 14.8745 22.0153 14.7614 21.4278 14.6725C21.4049 14.2545 21.3744 13.837 21.3364 13.4202ZM26.012 13.4202C26.7743 13.6661 27.4102 13.796 28.0372 13.9207C27.9951 14.2896 27.9406 14.6549 27.8967 15.022C27.2537 14.8516 26.6164 14.6607 25.9857 14.4494C26.0015 14.1245 26.005 13.7715 26.012 13.4202ZM31.4166 13.515L31.3042 13.7609L37.0249 14.6005L37.1514 14.3756L31.4166 13.515ZM11.2281 13.7784L9.1854 14.5864L9.35929 14.7796L11.3932 13.9927L11.2281 13.7784ZM23.5811 13.9453C23.8674 14.0279 24.1537 14.0858 24.4418 14.1807C24.8598 14.3704 25.2339 14.5144 25.601 14.6549C25.5764 15.0115 25.5554 15.368 25.5255 15.7228C25.1672 15.6069 24.8054 15.498 24.4506 15.3733C24.1547 15.2766 23.856 15.1887 23.5548 15.1098C23.5671 14.7322 23.5811 14.3581 23.5811 13.9453ZM28.3516 13.9822C28.7029 14.0472 29.077 14.1332 29.416 14.1859L29.5038 14.0384C29.4476 14.4828 29.3598 14.9324 29.2931 15.3821C28.9418 15.31 28.601 15.2029 28.2533 15.1134C28.2901 14.755 28.3235 14.3739 28.3516 13.9822ZM31.2322 14.3317L31.1215 14.5777L36.8422 15.4155L36.9669 15.1889L31.2322 14.3317ZM11.5162 14.3563L9.47346 15.1643L9.64383 15.3575L11.6795 14.5723L11.5162 14.3563ZM25.9752 14.7989C26.6795 15.0483 27.2749 15.1889 27.8563 15.3189C27.8124 15.6614 27.7702 16.0056 27.7228 16.3499C27.1081 16.1953 26.4968 16.0337 25.8961 15.844C25.9242 15.5015 25.9558 15.1713 25.9752 14.7989ZM20.8991 14.8095C20.9272 14.8183 20.9377 14.8235 21.0624 14.8446C21.0835 15.2064 21.1011 15.5718 21.1151 15.9353C21.0132 15.4207 20.9904 15.2627 20.9008 14.8113L20.8991 14.8095ZM21.4436 14.9044C22.0179 15.0045 22.5958 15.1327 23.1754 15.2767C23.1631 15.6789 23.1491 16.0811 23.128 16.4834C22.5877 16.3566 22.0429 16.2505 21.4945 16.1655C21.4845 15.7448 21.4669 15.3244 21.4418 14.9044H21.4436ZM11.7516 14.9641L9.70882 15.772L9.87919 15.9652L11.9131 15.1819L11.7516 14.9641ZM31.0354 15.2152L30.9195 15.4611L36.6402 16.3025L36.7684 16.0741L31.0354 15.2152ZM23.5443 15.3716C23.813 15.4418 24.08 15.4927 24.3505 15.5753C24.7667 15.7527 25.1409 15.8932 25.5062 16.0232C25.4746 16.392 25.4412 16.7591 25.4026 17.1262C25.0952 17.0279 24.7843 16.9365 24.4787 16.8329C24.145 16.724 23.8147 16.6608 23.4828 16.5765C23.5126 16.1971 23.5284 15.7843 23.5443 15.3716ZM28.2322 15.3962C28.5536 15.4611 28.8996 15.5507 29.2105 15.6069L29.2808 15.4717C29.0841 16.7925 28.8715 18.1133 28.5677 19.3428C28.248 19.2743 27.9353 19.1918 27.6192 19.1145C27.6965 18.7632 27.7685 18.3996 27.8405 18.0237C28.0952 18.0694 28.3727 18.1379 28.6203 18.1766L28.7187 18.0044C28.4359 17.9517 28.1637 17.8692 27.8844 17.806C27.9494 17.4582 28.0021 17.0647 28.0583 16.6853C28.3411 16.738 28.6485 16.8136 28.9242 16.8575L29.0296 16.6643C28.7134 16.6063 28.4078 16.5115 28.0952 16.4395C28.1426 16.1005 28.1918 15.765 28.2322 15.3962ZM30.9336 16.0337L30.8194 16.2796L36.4751 17.0314L36.6051 16.8048L30.9336 16.0337ZM25.8698 16.1479C26.5495 16.3709 27.1256 16.4974 27.6894 16.6116C27.6367 16.9822 27.5841 17.3528 27.5243 17.7216C26.9316 17.5791 26.3435 17.418 25.7609 17.2386C25.8048 16.8961 25.8346 16.5185 25.8698 16.1496V16.1479ZM21.4927 16.3762C22.032 16.4623 22.5729 16.5694 23.1139 16.6994C23.0946 17.0735 23.0753 17.4494 23.0472 17.8235C22.5273 17.7146 22.0109 17.6285 21.491 17.5548C21.4998 17.1789 21.4963 16.7749 21.4927 16.3745V16.3762ZM12.289 16.4026L10.2445 17.2105L10.4184 17.4055L12.4524 16.6186L12.289 16.4026ZM23.467 16.7855C23.7726 16.8628 24.0765 16.9225 24.3838 17.0138C24.7404 17.1649 25.0601 17.2773 25.3762 17.3897C25.3376 17.7375 25.306 18.087 25.2603 18.4348C25.0671 18.3698 24.8739 18.3154 24.6807 18.2504C24.2433 18.1028 23.8042 18.0115 23.3669 17.9096C23.4055 17.5513 23.4354 17.1666 23.467 16.7855ZM30.8001 16.7977L30.6859 17.0437L36.2626 17.8077L36.3926 17.5829L30.8001 16.7977ZM12.5771 16.9822L10.5326 17.7901L10.7047 17.9834L12.7387 17.1965L12.5771 16.9822ZM25.7222 17.5126C26.3003 17.697 26.8893 17.8454 27.4857 17.957C27.426 18.3171 27.368 18.6771 27.3013 19.039C26.7216 18.8862 26.1438 18.7211 25.5747 18.5349C25.6274 18.2082 25.6748 17.8604 25.7222 17.5126ZM12.8124 17.5882L10.7679 18.3961L10.9383 18.5911L12.974 17.806L12.8124 17.5882ZM30.6929 17.618L30.5788 17.8639L36.0799 18.6245L36.2081 18.3979L30.6929 17.618ZM21.4857 17.7533C21.9986 17.8288 22.5115 17.9149 23.0279 18.029C23.0022 18.3396 22.9735 18.6499 22.9418 18.96C22.5106 18.8783 22.0772 18.8092 21.642 18.7527C21.5858 18.4488 21.5454 18.224 21.4804 17.8868C21.4804 17.8411 21.484 17.7989 21.4857 17.7533ZM23.344 18.1098C23.7603 18.2082 24.1748 18.2977 24.5928 18.426C24.8212 18.5226 25.0179 18.5876 25.2269 18.6666C25.19 18.9529 25.1426 19.2392 25.0987 19.5237C24.9459 19.4746 24.7913 19.4324 24.6385 19.3832C24.1678 19.2322 23.6971 19.1338 23.2263 19.0319C23.2667 18.7281 23.3071 18.4242 23.344 18.1098ZM30.5911 18.4734L30.4751 18.7193L35.8411 19.5044L35.971 19.2779L30.5911 18.4734ZM25.5378 18.7843C26.1807 19.0126 26.7322 19.1602 27.2538 19.2761C27.2012 19.5483 27.1397 19.8206 27.0835 20.0911C26.5136 19.9469 25.9478 19.787 25.3868 19.6116C25.4377 19.3358 25.4904 19.0671 25.5378 18.7843ZM30.4066 19.2638L30.2907 19.5097L35.6092 20.3598L35.7374 20.1332L30.4066 19.2638ZM27.5718 19.3393C27.8914 19.4043 28.2164 19.4746 28.5255 19.5308C28.4517 19.8223 28.3586 20.0876 28.2761 20.3651C27.9755 20.3002 27.6757 20.2317 27.3768 20.1596C27.4418 19.8873 27.5085 19.6204 27.5718 19.3393Z" fill="#616162"/>
<path d="M23.6376 10.0882C23.62 10.3956 23.5936 10.6977 23.5796 11.0086C23.9379 11.1017 24.2997 11.2 24.658 11.3159C25.0445 11.4459 25.4397 11.5566 25.8296 11.6795C25.8542 11.3967 25.87 11.1087 25.9016 10.8294C25.4888 10.6837 25.069 10.5308 24.6001 10.3323C24.2769 10.234 23.959 10.1743 23.6376 10.0882Z" fill="#F8F1D7"/>
<path d="M21.0482 6.98462C21.0394 7.29551 21.0201 7.60113 21.0166 7.91553C21.8246 8.03848 22.6273 8.16843 23.4335 8.36691C23.4651 8.07534 23.5107 7.79078 23.5459 7.50097C22.7098 7.2902 21.8773 7.11635 21.0482 6.98462Z" fill="#EBECA1"/>
<path d="M17.5214 16.0249C16.7661 13.2849 16.7538 13.0478 17.3808 12.8405C17.6671 12.7439 18.0167 13.4307 18.18 14.4038C18.3399 15.3593 18.5981 16.6028 18.7526 17.1701C18.9107 17.7392 18.8317 18.1994 18.5787 18.1994C18.3276 18.1994 17.8516 17.2211 17.5214 16.0249Z" fill="#218F21"/>
<path d="M16.6573 18.837C16.083 17.5864 16.1638 16.5009 15.5684 15.347C15.8178 15.1924 16.0444 14.9676 16.2323 15.0835C16.8997 15.491 17.4759 17.9114 17.655 18.6543C17.0262 18.9705 16.7662 19.1251 16.6573 18.837Z" fill="#FE2E2E"/>
<path d="M30.5544 6.83179C31.1814 6.92137 34.3483 6.96877 35.3652 6.87392C36.9777 6.758 40.7926 8.13152 42.0924 8.98515C42.3067 9.12566 42.2101 9.82299 42.2083 9.96526C41.9326 10.9735 41.5409 10.6327 39.6615 9.61395C38.7165 9.13972 36.5227 8.61107 34.7856 8.43894C33.0503 8.26857 31.1797 8.32125 30.8126 8.23343C30.4437 8.14561 30.0784 8.23695 30.5561 6.83356L30.5544 6.83179ZM6.57905 8.41257C6.57905 7.87159 6.24533 7.51678 6.54743 7.21467C7.64872 6.87041 8.14228 7.35518 9.66862 6.29078C12.2629 4.53435 15.4824 3.13447 17.7693 3.12568C19.661 3.12568 20.0527 3.20124 20.0527 3.6825C20.0527 4.03906 19.8963 4.50803 19.8963 4.50803C19.4678 5.0736 18.4525 4.69772 17.5269 4.87863C15.7406 4.87863 14.1756 5.47052 12.5896 6.73691C11.7465 7.40787 11.1493 7.58354 9.83548 8.02792C7.45024 8.83588 6.57905 9.39442 6.57905 8.41257ZM26.1615 2.05252C24.6211 0.98636 25.0831 2.0209 21.918 1.96118C17.1405 1.86809 17.1106 1.86283 17.1106 1.09175C17.1106 0.577116 17.7623 0.452429 20.0878 0.519173C21.7248 0.568353 22.2693 0.508588 23.0632 0.262687C23.3987 0.118659 23.9923 0.025604 24.521 0.00277034C25.7224 -0.0446534 26.8342 0.519136 27.7722 1.51328C28.2921 2.02791 29.0649 3.19946 29.3319 3.05895C29.5198 3.20298 30.7687 2.17547 31.487 1.7346C32.706 0.916103 33.8459 0.478771 34.0813 0.624555C34.4941 1.56952 34.5907 1.51855 34.2921 1.7785C33.9917 2.04021 33.2962 2.61281 32.0333 3.35403C29.7622 4.43775 29.1317 5.49161 26.1615 2.05252Z" fill="#2E51A8"/>
</svg>
