<svg width="48" height="55" viewBox="0 0 48 55" fill="none" xmlns="http://www.w3.org/2000/svg">
<path d="M48 13.8243L24.0044 0V9.56521L48 23.3302V13.8243Z" fill="#FF6492"/>
<path d="M48.0002 23.3292L40.8014 27.4992L24.0002 17.8371L14.4002 23.3371L7.2002 19.4722L24.0046 9.56439L48.0002 23.3292Z" fill="#141446"/>
<path d="M14.4002 23.3379L7.2002 19.4731V27.5002L14.4002 23.3379Z" fill="#A14474"/>
<path d="M0 41.1758L24 27.5L47.9999 41.1758L24 55L0 41.1758Z" fill="#141446"/>
<path d="M47.9995 31.6857L23.9995 17.6901V27.5009L47.9995 41.1765V31.6857Z" fill="#FF6492"/>
<path d="M7.19999 27.5V19.4729L24.0045 9.56521V0L0 13.8243V41.1758L24 27.5V17.6892L7.19999 27.5Z" fill="#7A77FF"/>
</svg>
