<svg width="48" height="64" viewBox="0 0 48 64" fill="none" xmlns="http://www.w3.org/2000/svg">
<path d="M15.2015 49.4947C15.2015 49.4947 12.7558 50.917 16.942 51.3983C22.0136 51.9768 24.6055 51.8939 30.1944 50.8361C30.1944 50.8361 31.6638 51.7574 33.7158 52.5554C21.1871 57.925 5.36086 52.2444 15.2015 49.4947Z" fill="#5382A1"/>
<path d="M13.6706 42.4877C13.6706 42.4877 10.9275 44.5182 15.1169 44.9516C20.5344 45.5105 24.8128 45.5562 32.216 44.1306C32.216 44.1306 33.24 45.1687 34.8501 45.7364C19.7021 50.1659 2.83 46.0858 13.6706 42.4877Z" fill="#5382A1"/>
<path d="M26.5771 30.6016C29.6642 34.1558 25.766 37.3541 25.766 37.3541C25.766 37.3541 33.6046 33.3076 30.0047 28.2404C26.6425 23.5149 24.0641 21.167 38.0223 13.0717C38.0223 13.0717 16.1125 18.5438 26.5771 30.6016Z" fill="#E76F00"/>
<path d="M43.1474 54.6775C43.1474 54.6775 44.9572 56.1688 41.1541 57.3224C33.9224 59.5132 11.0548 60.1747 4.70232 57.4097C2.41876 56.4163 6.70109 55.0377 8.04814 54.7484C9.45299 54.4438 10.2558 54.5005 10.2558 54.5005C7.71625 52.7115 -6.15883 58.0133 3.20795 59.5317C28.7525 63.6742 49.7733 57.6662 43.1474 54.6775Z" fill="#5382A1"/>
<path d="M16.3777 35.2277C16.3777 35.2277 4.74586 37.9905 12.2586 38.9938C15.4307 39.4185 21.7542 39.3224 27.6444 38.8289C32.4582 38.4228 37.2919 37.5594 37.2919 37.5594C37.2919 37.5594 35.5945 38.2863 34.3664 39.1249C22.5545 42.2314 -0.264073 40.7862 6.30509 37.6086C11.8606 34.9231 16.3777 35.2277 16.3777 35.2277Z" fill="#5382A1"/>
<path d="M37.2443 46.8912C49.2517 40.6517 43.6999 34.6555 39.8249 35.4634C38.8751 35.661 38.4516 35.8323 38.4516 35.8323C38.4516 35.8323 38.8042 35.28 39.4776 35.0409C47.1437 32.3457 53.0394 42.9899 37.0029 47.2057C37.0029 47.2058 37.1887 47.0397 37.2443 46.8912Z" fill="#5382A1"/>
<path d="M30.0046 0C30.0046 0 36.6545 6.65214 23.6975 16.8813C13.3073 25.0868 21.3282 29.7653 23.6932 35.1108C17.6282 29.6387 13.1774 24.8216 16.1634 20.3383C20.5461 13.7573 32.6877 10.5665 30.0046 0Z" fill="#E76F00"/>
<path d="M17.5579 63.7988C29.0836 64.5366 46.7825 63.3895 47.2017 57.9359C47.2017 57.9359 46.3959 60.0033 37.6763 61.6451C27.839 63.4964 15.706 63.2803 8.50977 62.0938C8.50994 62.0936 9.98292 63.3131 17.5579 63.7988Z" fill="#5382A1"/>
</svg>
