<svg width="29" height="64" viewBox="0 0 29 64" fill="none" xmlns="http://www.w3.org/2000/svg">
<path d="M27.6203 25.4692C24.3197 10.5951 17.4405 6.63542 15.6856 3.83634C14.962 2.60328 14.321 1.32157 13.767 0C13.6743 1.32136 13.504 2.15381 12.4045 3.15584C10.1969 5.16651 0.821245 12.9713 0.032214 29.8715C-0.702922 45.6287 11.3718 55.3451 12.9672 56.3493C14.1938 56.966 15.6878 56.3625 16.4165 55.7966C22.2372 51.7158 30.19 40.8366 27.6268 25.4692" fill="#10AA50"/>
<path d="M14.2671 47.9587C13.9632 51.8589 13.7454 54.1251 12.9736 56.3537C12.9736 56.3537 13.4803 60.0668 13.836 64H15.095C15.3953 61.2303 15.8538 58.4808 16.4682 55.7657C14.8384 54.9465 14.3296 51.381 14.2671 47.9587Z" fill="#B8C4C2"/>
<path d="M16.4659 55.7679C14.8188 54.9905 14.3424 51.3502 14.2691 47.9587C14.6764 42.3642 14.7951 36.7517 14.6248 31.1444C14.5386 28.2022 14.6658 3.89361 13.9155 0.334747C14.4287 1.5401 15.02 2.70916 15.6855 3.83415C17.4403 6.63543 24.3217 10.5951 27.6201 25.4692C30.1898 40.8102 22.2801 51.6607 16.4659 55.7679Z" fill="#12924F"/>
</svg>
